<svg xmlns="http://www.w3.org/2000/svg" xmlns:xlink="http://www.w3.org/1999/xlink" viewBox="0 0 16 30" version="1.1" x="0px" y="0px"><title>9 -Drum- (Solid)</title><desc>Created with Sketch.</desc><g stroke="none" stroke-width="1" fill="none" fill-rule="evenodd"><g transform="translate(-1.000000, 0.000000)" fill="#000000"><path d="M3.5015,1.9995 L14.5015,1.9995 C14.7765,1.9995 15.0015,2.2235 15.0015,2.4995 C15.0015,2.7755 14.7765,2.9995 14.5015,2.9995 L14.4225,2.9995 L3.5805,2.9995 L3.5015,2.9995 C3.2265,2.9995 3.0015,2.7755 3.0015,2.4995 C3.0015,2.2235 3.2265,1.9995 3.5015,1.9995 M17.0015,2.4995 C17.0015,1.1215 15.8805,-0.0005 14.5015,-0.0005 L3.5015,-0.0005 C2.1225,-0.0005 1.0015,1.1215 1.0015,2.4995 C1.0015,3.4245 1.5125,4.2245 2.2605,4.6565 C0.6155,9.0745 0.5615,13.6145 2.1645,18.2165 L2.4965,18.9995 L15.4185,18.9995 L15.7385,18.0615 C17.3515,13.4265 17.3375,8.9235 15.7445,4.6555 C16.4915,4.2235 17.0015,3.4235 17.0015,2.4995"/><path d="M4.0532,23.3159 C4.1892,23.7239 4.5712,23.9999 5.0012,23.9999 L12.9972,23.9999 C13.4272,23.9999 13.8092,23.7249 13.9462,23.3169 L14.7362,20.9999 L3.2812,20.9999 L4.0532,23.3159 Z"/></g></g><text x="0" y="39" fill="#000000" font-size="5px" font-weight="bold" font-family="'Helvetica Neue', Helvetica, Arial-Unicode, Arial, Sans-serif">Created by Ben Davis</text><text x="0" y="44" fill="#000000" font-size="5px" font-weight="bold" font-family="'Helvetica Neue', Helvetica, Arial-Unicode, Arial, Sans-serif">from the Noun Project</text></svg>