<svg xmlns="http://www.w3.org/2000/svg" xmlns:xlink="http://www.w3.org/1999/xlink" version="1.1" x="0px" y="0px" viewBox="0 0 100 125" enable-background="new 0 0 100 100" xml:space="preserve"><g><path fill-rule="evenodd" clip-rule="evenodd" d="M57.771,29.366c-2.799,2.004-5.604,3.999-8.392,6.014   c-2.066,1.495-4.114,3.013-6.167,4.524c-1.569,1.154-1.604,1.645-0.279,3.093c0.148,0.162,0.253,0.432,0.251,0.651   c-0.011,1.574,1.105,2.417,2.625,1.947c0.329-0.102,0.646-0.243,0.717-0.271c0.64,0.718,1.084,1.608,1.775,1.885   c0.733,0.295,1.701,0.014,2.567-0.021c0.183-0.008,0.395-0.113,0.543-0.051c1.829,0.754,3.596,0.485,5.343-0.276   c0.905-0.395,1.831-0.74,2.721-1.164c2.326-1.109,4.679-2.049,7.274-2.444c1.433-0.218,2.859-0.891,4.132-1.631   c1.506-0.875,2.976-1.907,4.223-3.117c1.795-1.74,3.562-3.597,3.62-6.401c0.78,1.468,0.776,3.077,0.17,4.44   c-0.591,1.334-1.751,2.417-2.69,3.646c1.433,0.32,2.962,0.589,4.447,1.01c1.559,0.442,3.103,0.963,4.602,1.576   c0.992,0.406,2.251,0.94,2.264,2.104c0.013,1.231-1.278,1.809-2.304,2.165c-2.339,0.814-4.703,1.62-7.12,2.134   c-6.887,1.461-13.896,1.996-20.913,2.086c-6.188,0.079-12.391-0.055-18.57-0.393c-5.98-0.328-11.945-1.031-17.707-2.823   c-1.237-0.384-2.462-0.907-3.58-1.558c-1.798-1.049-1.828-2.148-0.023-3.141c1.465-0.806,3.05-1.555,4.671-1.884   c4.27-0.866,8.577-1.58,12.894-2.178c2.68-0.371,5.406-0.402,8.108-0.629c0.379-0.031,0.769-0.27,1.101-0.491   c4.161-2.784,8.31-5.584,12.467-8.374c0.356-0.24,0.748-0.432,1.122-0.646C57.698,29.221,57.733,29.294,57.771,29.366z"/><path fill-rule="evenodd" clip-rule="evenodd" d="M14.278,15.192c-2.681-3.322-2.769-3.682-1.262-5.413   c-0.26-0.504-0.542-1.029-0.803-1.564c-0.51-1.043-0.421-2.013,0.246-2.727c0.687-0.733,1.447-0.423,2.204-0.143   c0.082,0.03,0.174,0.034,0.255,0.049c0.938-1.962,1.972-2.429,3.776-1.212c2.688,1.812,5.196,3.891,7.778,5.86   c0.203,0.155,0.392,0.33,0.571,0.511c1.129,1.139,2.314,2.092,4.07,2.11c0.839,0.01,1.458,0.589,1.898,1.397   c1.324,2.438,1.136,4.739-0.349,7.032c-0.685,1.059-1.365,2.148-1.833,3.31c-0.417,1.032,0.17,2.039,1.263,2.285   c2.449,0.55,4.312-0.054,4.724-2.815c0.168-1.128,0.174-2.286,0.19-3.431c0.019-1.425,0.542-2.527,1.822-3.231   c0.641-0.353,1.247-0.771,1.9-1.096c0.89-0.443,1.563-0.235,1.965,0.659c2.393,5.329,1.455,13.083-3.156,17.023   c-1.979,1.692-4.221,2.177-6.677,1.201c-3.569-1.417-6.818-3.32-9.266-6.375c-0.278-0.347-0.603-0.694-0.755-1.099   c-0.545-1.452-1.642-2.389-2.754-3.401c-2.12-1.933-4.098-4.025-6.097-6.086C13.085,17.105,13.238,15.98,14.278,15.192z"/><path fill-rule="evenodd" clip-rule="evenodd" d="M16.912,49.309c22.999,5.157,45.974,5.381,69.177,0.766   c-0.229,1.205-0.405,2.413-0.69,3.597c-1.711,7.13-4.416,13.908-7.339,20.605c-2.604,5.966-5.492,11.786-8.693,17.463   c-1.424,2.528-3.386,3.86-6.146,4.455c-5.565,1.197-11.189,1.607-16.845,1.327c-3.428-0.17-6.839-0.726-10.25-1.169   c-0.769-0.102-1.504-0.46-2.208-0.895c1.069,0.146,2.136,0.312,3.207,0.437c9.344,1.099,18.469,0.271,27.278-3.176   c0.572-0.225,1.166-0.692,1.492-1.21c3.964-6.274,7.065-12.993,10.009-19.785c2.396-5.531,4.578-11.147,6.191-16.967   c0.076-0.274,0.139-0.551,0.251-1.004c-1.164,0.171-2.216,0.32-3.266,0.481c-7.46,1.15-14.962,1.67-22.506,1.773   c-7.99,0.107-15.97-0.069-23.894-1.088c-4.83-0.621-9.609-1.646-14.415-2.468c-0.737-0.126-1.113-0.464-1.141-1.235   C17.104,50.589,16.989,49.965,16.912,49.309z"/><path fill-rule="evenodd" clip-rule="evenodd" d="M37.697,10.281c0.104-0.901,0.141-1.7,0.295-2.476   c0.334-1.685,1.826-2.375,3.333-1.531c0.224,0.125,0.457,0.643,0.371,0.846c-0.615,1.466-0.666,2.938-0.4,4.489   c0.105,0.623-0.132,1.314-0.26,1.965c-0.174,0.881-0.825,1.136-1.627,1.139c-0.813,0.005-1.208-0.418-1.295-1.217   C37.993,12.393,37.83,11.292,37.697,10.281z"/><path fill-rule="evenodd" clip-rule="evenodd" d="M55.428,20.867c1.579,2.016,3.963,2.595,6.072,3.62   c0.672,0.326,1.127,0.662,1.017,1.481c-0.072,0.535-0.353,0.747-0.849,0.592c-2.526-0.785-4.638-2.195-6.228-4.319   C55.166,21.875,54.745,21.335,55.428,20.867z"/><path fill-rule="evenodd" clip-rule="evenodd" d="M54.789,36.532c-2.235,1.302-4.469,2.606-6.704,3.909   c-0.044-0.069-0.089-0.138-0.134-0.208c1.961-1.369,3.914-2.749,5.894-4.09c0.189-0.128,0.541-0.017,0.817-0.017   C54.704,36.261,54.747,36.396,54.789,36.532z"/><path fill-rule="evenodd" clip-rule="evenodd" d="M50.839,42.559c1.772-1.107,3.539-2.227,5.328-3.309   c0.164-0.099,0.471,0.037,0.711,0.062c-0.115,0.191-0.185,0.471-0.354,0.56c-1.841,0.969-3.698,1.91-5.55,2.858   C50.929,42.674,50.884,42.617,50.839,42.559z"/><path fill-rule="evenodd" clip-rule="evenodd" d="M55.647,43.706c1.39-0.857,2.778-1.714,4.237-2.614   C59.837,41.966,58.46,42.827,55.647,43.706z"/></g><text x="0" y="115" fill="#000000" font-size="5px" font-weight="bold" font-family="'Helvetica Neue', Helvetica, Arial-Unicode, Arial, Sans-serif">Created by Orun Bhuiyan</text><text x="0" y="120" fill="#000000" font-size="5px" font-weight="bold" font-family="'Helvetica Neue', Helvetica, Arial-Unicode, Arial, Sans-serif">from the Noun Project</text></svg>