<?xml version="1.0" standalone="no"?>
<!DOCTYPE svg PUBLIC "-//W3C//DTD SVG 20010904//EN"
 "http://www.w3.org/TR/2001/REC-SVG-20010904/DTD/svg10.dtd">
<svg version="1.0" xmlns="http://www.w3.org/2000/svg"
 width="1168.000000pt" height="1168.000000pt" viewBox="0 0 1168.000000 1168.000000"
 preserveAspectRatio="xMidYMid meet">
<metadata>
Created by potrace 1.11, written by Peter Selinger 2001-2013
</metadata>
<g transform="translate(0.000000,1168.000000) scale(0.100000,-0.100000)"
fill="#000000" stroke="none">
<path d="M333 10377 c5 -12 -15 -14 -139 -12 -79 1 -144 0 -144 -3 0 -3 32
-103 70 -222 39 -119 72 -227 75 -238 2 -12 7 -28 12 -35 4 -6 8 -17 9 -24 2
-13 41 -136 51 -163 4 -8 7 -17 8 -20 2 -8 11 -37 86 -272 l70 -218 57 -1 c31
0 90 -1 131 -2 l75 -2 12 -45 c7 -25 22 -76 34 -115 23 -75 38 -127 45 -161 3
-12 12 -38 20 -58 8 -20 15 -39 15 -43 0 -5 6 -26 12 -48 6 -22 11 -46 9 -52
-1 -7 3 -13 9 -13 6 0 10 -6 9 -12 -1 -7 0 -20 3 -28 3 -8 11 -35 18 -60 12
-43 21 -71 71 -235 11 -38 22 -77 24 -85 2 -8 13 -49 26 -90 13 -41 22 -78 21
-82 -1 -5 3 -8 9 -8 5 0 7 -5 3 -11 -3 -6 -2 -21 4 -32 15 -30 56 -170 53
-181 -1 -4 3 -14 10 -22 6 -7 8 -18 4 -24 -3 -5 -1 -10 6 -10 7 0 10 -3 7 -6
-4 -3 2 -31 12 -62 32 -102 87 -289 95 -322 2 -8 46 -153 55 -180 4 -14 13
-45 20 -70 7 -25 15 -52 18 -60 3 -8 7 -24 9 -35 2 -11 6 -27 10 -35 5 -13 21
-65 53 -175 4 -16 18 -61 30 -100 22 -75 35 -116 49 -167 5 -18 19 -64 31
-103 12 -38 23 -77 25 -85 1 -8 5 -22 8 -30 10 -28 48 -156 51 -170 1 -8 11
-42 21 -75 10 -33 20 -64 21 -70 1 -5 11 -39 23 -74 11 -35 21 -72 21 -82 0
-10 5 -21 10 -24 6 -4 10 -12 8 -18 -1 -7 13 -59 31 -116 18 -57 34 -111 37
-120 2 -9 15 -54 29 -101 35 -115 36 -121 42 -152 3 -16 10 -28 15 -28 5 0 7
-4 4 -8 -3 -5 11 -58 30 -118 19 -60 36 -118 38 -129 3 -11 14 -51 26 -90 12
-38 22 -74 24 -80 1 -5 9 -30 16 -55 8 -25 14 -47 15 -50 1 -3 7 -25 14 -50 7
-25 26 -88 42 -140 17 -52 32 -102 34 -110 2 -8 20 -71 40 -140 20 -69 43
-145 50 -170 7 -25 22 -74 33 -110 11 -36 22 -74 25 -85 6 -22 56 -195 61
-210 2 -5 4 -12 4 -15 0 -3 6 -18 12 -35 10 -26 16 -48 24 -90 1 -5 5 -15 8
-21 4 -6 9 -21 12 -35 2 -13 9 -36 15 -51 6 -16 8 -28 5 -28 -4 0 -2 -6 4 -13
6 -7 13 -24 15 -37 2 -14 6 -32 10 -40 10 -28 59 -194 63 -215 2 -11 8 -31 13
-45 6 -14 31 -97 57 -185 41 -144 58 -202 125 -425 11 -36 22 -74 24 -85 3
-12 13 -47 24 -80 11 -32 17 -63 15 -67 -3 -4 -1 -8 4 -8 5 0 9 -6 9 -12 1 -7
13 -53 28 -103 15 -49 28 -97 29 -105 1 -8 8 -25 14 -38 7 -12 11 -22 8 -22
-2 0 3 -21 11 -47 23 -76 74 -247 78 -263 2 -8 4 -16 5 -17 2 -2 4 -7 5 -13 1
-5 4 -13 5 -17 2 -5 4 -12 5 -18 1 -5 9 -35 19 -65 19 -60 34 -111 42 -150 3
-13 10 -27 15 -31 6 -3 1209 -6 2674 -6 l2664 0 16 51 c10 28 18 56 20 61 1 6
5 17 8 25 18 49 77 243 77 255 0 8 5 15 12 15 6 0 9 3 6 6 -4 3 -2 20 4 37 5
18 10 37 11 42 2 6 8 24 14 40 13 36 65 204 67 219 1 6 4 16 8 21 3 6 17 48
31 95 35 119 43 137 64 142 10 3 19 14 20 24 1 10 11 64 23 119 12 55 24 111
27 125 5 29 32 128 40 150 4 8 7 18 8 23 2 4 3 8 5 10 1 1 3 9 5 18 1 8 28 95
60 193 31 98 58 186 60 195 2 9 10 35 18 58 9 22 13 44 10 47 -4 3 0 6 7 6 7
0 11 3 8 6 -4 3 7 45 24 92 16 48 31 96 33 107 2 11 24 83 50 160 25 77 48
149 50 159 7 29 25 89 35 111 5 11 19 54 30 95 12 41 35 116 52 165 16 50 32
101 34 115 3 13 10 30 16 37 6 7 8 13 4 13 -3 0 0 15 7 33 8 17 15 35 15 40 2
7 2 9 6 25 6 20 50 164 66 212 10 30 38 120 63 200 25 80 69 218 97 307 28 90
51 166 51 170 1 5 7 24 14 43 7 19 30 89 50 155 20 66 39 127 42 135 3 8 8 21
10 28 1 6 5 18 6 25 2 6 7 19 10 27 3 8 20 62 37 120 18 58 42 137 54 175 13
39 33 104 45 145 13 41 27 84 31 95 5 11 20 61 35 110 15 50 33 108 40 130 16
46 107 335 111 350 6 23 53 172 62 195 5 14 9 27 9 30 0 7 68 226 99 317 13
39 24 76 24 82 0 5 5 22 12 38 6 15 12 35 14 44 2 8 19 62 38 120 19 57 46
145 61 194 14 50 29 97 32 105 3 8 7 20 9 25 1 6 14 46 29 90 14 44 28 88 31
98 2 9 6 25 8 35 3 9 16 49 29 87 13 39 25 73 26 77 1 4 3 13 6 20 7 23 69
223 71 231 1 4 3 10 4 15 2 4 4 12 5 17 1 6 5 17 8 25 11 28 58 178 61 191 1
8 4 19 7 24 5 8 12 29 24 75 4 18 18 59 27 82 l10 27 119 0 c121 -1 159 5 159
22 0 6 18 37 40 69 22 32 40 61 40 64 0 2 18 32 40 65 22 33 40 63 40 66 0 3
16 28 35 55 19 27 35 54 35 60 0 5 5 10 12 10 6 0 8 3 5 7 -4 3 -1 13 6 22 12
15 118 180 142 223 6 10 42 68 80 130 39 62 70 117 70 123 0 5 -36 10 -80 11
-44 1 -206 5 -360 9 -154 4 -328 8 -387 9 -59 1 -110 5 -114 9 -4 3 -14 3 -23
-1 -9 -5 -27 -7 -41 -5 -45 5 -100 4 -110 -2 -5 -3 -10 -3 -10 2 0 4 -64 9
-143 9 -78 1 -250 4 -382 8 -132 3 -339 8 -460 11 -454 10 -682 16 -745 19
-36 2 -73 -1 -82 -6 -9 -4 -19 -4 -22 0 -3 5 -70 10 -148 11 -79 2 -201 4
-273 6 -181 5 -701 16 -873 19 -78 2 -145 6 -148 9 -4 3 -14 2 -24 -3 -10 -5
-20 -7 -23 -4 -3 3 -95 8 -204 10 -307 6 -648 13 -648 14 0 1 -97 3 -215 5
-434 9 -570 14 -580 20 -6 3 -10 1 -10 -5 0 -6 -4 -9 -9 -5 -9 5 -122 8 -641
20 -113 2 -308 7 -435 10 -126 3 -314 7 -416 9 -103 2 -192 7 -198 10 -6 4
-11 2 -11 -4 0 -6 -5 -8 -11 -4 -6 4 -95 8 -198 10 -179 3 -353 7 -896 20
-137 3 -288 7 -335 8 -47 1 -90 5 -95 8 -6 4 -16 4 -22 0 -6 -4 -37 -6 -70 -5
-32 1 -148 5 -258 8 -290 7 -497 14 -613 20 -56 3 -151 8 -210 11 -59 2 -150
6 -202 9 -52 2 -141 7 -197 9 -56 3 -162 8 -234 11 -114 6 -131 5 -126 -8z"/>
</g>
</svg>
